<svg id="Layer_1_1_" enable-background="new 0 0 64 64" height="512" viewBox="0 0 64 64" width="512" xmlns="http://www.w3.org/2000/svg"><path d="m60 8h-24v-2c0-2.206-1.794-4-4-4s-4 1.794-4 4v2h-24c-1.103 0-2 .897-2 2v2c0 1.103.897 2 2 2h1v26h2v-26h50v30h-50v-2h-2v3c0 .552.447 1 1 1h10v2c0 1.103.897 2 2 2h4.573l-3.512 9.658c-.04.11-.061.225-.061.342 0 1.103.897 2 2 2h2c1.033 0 1.887-.788 1.989-1.795l3.711-10.205h.3v10c0 1.103.897 2 2 2h2c1.103 0 2-.897 2-2v-10h.3l3.711 10.205c.102 1.007.956 1.795 1.989 1.795h2c1.103 0 2-.897 2-2 0-.117-.021-.232-.061-.342l-3.512-9.658h4.573c1.103 0 2-.897 2-2v-2h10c.553 0 1-.448 1-1v-31h1c1.103 0 2-.897 2-2v-2c0-1.103-.897-2-2-2zm-36.939 51.658c-.04.11-.061.225-.061.342h-1.936l3.636-10h1.872zm9.939.342h-2v-10h2zm9.936 0h-1.936c0-.117-.021-.232-.061-.342l-3.512-9.658h1.873zm3.064-12h-28v-2h28zm-16-42c0-1.103.897-2 2-2s2 .897 2 2v2h-4zm-26 6v-2h56l.001 2z"/><path d="m31 17c0-.552-.447-1-1-1h-20c-.553 0-1 .448-1 1v14c0 .552.447 1 1 1h20c.553 0 1-.448 1-1zm-2 7h-11v-6h11zm-13-6v6h-5v-6zm-5 8h12v4h-12zm14 4v-4h4v4z"/><path d="m9 34h7v2h-7z"/><path d="m18 34h13v2h-13z"/><path d="m9 38h22v2h-22z"/><path d="m35 40h18c.553 0 1-.448 1-1v-13c.425 0 .803-.268.943-.669s.013-.847-.318-1.112l-10-8c-.365-.292-.885-.292-1.25 0l-10 8c-.331.265-.459.711-.318 1.112s.518.669.943.669v13c0 .552.447 1 1 1zm11-2h-4v-6h4zm-2-19.719 7.149 5.719h-14.298zm8 7.719v12h-4v-7c0-.552-.447-1-1-1h-6c-.553 0-1 .448-1 1v7h-4v-12z"/></svg>