<svg id="Layer_1" enable-background="new 0 0 66 66" viewBox="0 0 66 66" xmlns="http://www.w3.org/2000/svg"><g><g><g><path d="m47.2 22.2c4.2 0 7.5-4.2 7.5-7.9s-3.4-6.6-7.5-6.6-7.5 3-7.5 6.6c.1 3.7 3.3 7.9 7.5 7.9zm0-12.5c3 0 5.5 2.1 5.5 4.6 0 2.7-2.5 5.9-5.5 5.9s-5.5-3.2-5.5-5.9c.1-2.6 2.5-4.6 5.5-4.6z"/></g><g><path d="m24.2 32.2h-16.1c-.6 0-1 .4-1 1v7.9c0 .6.4 1 1 1h16.1c.6 0 1-.4 1-1v-7.9c0-.6-.4-1-1-1zm-1 7.9h-14.1v-5.9h14.1z"/></g><g><path d="m24.2 46h-16.1c-.6 0-1 .4-1 1v8c0 .6.4 1 1 1h16.1c.6 0 1-.4 1-1v-8c0-.5-.4-1-1-1zm-1 8h-14.1v-6h14.1z"/></g><g><path d="m19.3 15c0 3.2 2.6 5.8 5.8 5.8s5.8-2.6 5.8-5.8-2.6-5.8-5.8-5.8-5.8 2.6-5.8 5.8zm9.6 0c0 2.1-1.7 3.8-3.8 3.8s-3.8-1.7-3.8-3.8 1.7-3.8 3.8-3.8 3.8 1.7 3.8 3.8z"/></g><g><path d="m64 61.2h-9.5c.9-.8 1.2-1.6 1.2-2.3v-10.4h1c4.7 0 5.3-2.8 5.3-5v-16.7c0-2.1 0-5-4.6-5.6-.8-.1-1.6-.2-2.4-.3-.4 0-.7.1-.9.4-1.6 2.4-3.9 4.5-6.8 6.3-2.9-1.8-5.3-4-6.8-6.3-.2-.3-.6-.5-.9-.4-.8.1-1.6.2-2.4.3-3.3.5-4.2 2.1-4.5 3.8h-28.2l20.6-19.8 10.7 10.2c.4.4 1 .4 1.4 0s.4-1 0-1.4l-11.4-10.9c-.4-.4-1-.4-1.4 0l-8.8 8.4v-3.5c0-.6-.4-1-1-1h-7.3c-.6 0-1 .4-1 1v12.5l-5 4.8c-.3.3-.4.7-.2 1.1.1.4.5.6.9.6h.9v34.1h-.5c-.6 0-1 .4-1 1s.4 1 1 1h44 17.6c.6 0 1-.4 1-1 0-.5-.4-.9-1-.9zm-55.7-52.2h5.4v4.4l-5.4 5.2zm29 14.2c.6-.1 1.2-.2 1.7-.2 1.8 2.5 4.5 4.9 7.7 6.8.3.2.7.2 1 0 3.3-1.9 5.8-4.2 7.6-6.8.6.1 1.2.1 1.8.2 2.8.4 2.8 1.6 2.8 3.6v16.7c0 1.8-.2 3-3.3 3h-1v-14.2c0-.6-.4-1-1-1s-1 .4-1 1v26.6c0 1.5-3.9 2-5.5 2.1v-9.9c0-.6-.4-1-1-1s-1 .4-1 1v9.8h-.8c-2.5-.3-4.3-1-4.6-1.8-.1-.3 0 1.9 0-26.8 0-.6-.4-1-1-1s-1 .4-1 1v14.2h-1c-3.1 0-3.3-1.2-3.3-3 0-12 0-17 0-17.4.1-1.6.4-2.6 2.9-2.9zm-32.4 3.8h27.6v7.5 9c0 2.1.6 5 5.3 5h1c0 11-.4 11.3 1.1 12.7h-35z"/></g></g></g></svg>