<svg id="Layer_1" enable-background="new 0 0 512 512" viewBox="0 0 512 512" xmlns="http://www.w3.org/2000/svg"><path d="m304.283 231.607c-1.998-1.514-4.588-2.002-6.996-1.325l-87.312 24.542c-3.451.97-5.835 4.117-5.835 7.702v58.874l-71.311 20.045v-17.436c0-4.418-3.582-8-8-8h-14.935l-10.776-92.421c-.47-4.033-3.886-7.074-7.946-7.074h-39.17c-4.06 0-7.476 3.041-7.946 7.074l-10.776 92.421h-17.28c-2.122 0-4.157.843-5.657 2.343-1.5 1.501-2.343 3.535-2.343 5.657v159.891c0 4.418 3.582 8 8 8h283.452c4.418 0 8-3.582 8-8v-245.916c0-2.505-1.173-4.864-3.169-6.377zm-100.143 106.412v137.881h-71.312v-117.836zm-145.016-105.505h24.926l9.735 83.495h-44.396zm-35.124 99.495h92.829v143.891h-15.113l.034-84.539c.001-2.122-.842-4.157-2.342-5.658s-3.536-2.345-5.658-2.345h-46.67c-4.417 0-7.998 3.58-8 7.997l-.034 84.545h-15.046zm61.716 143.891h-30.67l.03-76.542h30.67zm205.736 0h-71.312v-207.313l71.312-20.044zm-134.72-53.038h23.504c4.418 0 8-3.582 8-8v-23.504c0-4.418-3.582-8-8-8h-23.504c-4.418 0-8 3.582-8 8v23.504c0 4.418 3.582 8 8 8zm8-23.504h7.504v7.504h-7.504zm79.311 23.504h23.504c4.418 0 8-3.582 8-8v-23.504c0-4.418-3.582-8-8-8h-23.504c-4.418 0-8 3.582-8 8v23.504c0 4.418 3.582 8 8 8zm15.505-23.504v7.504h-7.504v-7.504zm-15.504-53.405h23.504c4.418 0 8-3.582 8-8v-23.505c0-4.418-3.582-8-8-8h-23.504c-4.418 0-8 3.582-8 8v23.505c0 4.418 3.581 8 8 8zm8-23.505h7.504v7.505h-7.504zm-113.005-143.47c0 4.418-3.582 8-8 8h-41.806c-.312 0-.543.165-.681.303-.141.141-.306.371-.306.684v15.881c0 4.418-3.582 8-8 8s-8-3.582-8-8v-15.881c0-4.518 1.773-8.779 4.992-11.997 3.216-3.217 7.477-4.99 11.995-4.99h41.806c4.419 0 8 3.582 8 8zm-86.49 24.868v-15.881c0-9.776 3.822-18.982 10.761-25.923 6.941-6.94 16.147-10.762 25.923-10.762h41.806c4.418 0 8 3.582 8 8s-3.582 8-8 8h-41.806c-5.503 0-10.691 2.158-14.609 6.076-3.917 3.917-6.075 9.106-6.075 14.609v15.881c0 4.418-3.582 8-8 8s-8-3.581-8-8zm443.451-118.069h-37.872l-65.901-53.121-1.986-7.346c-.943-3.489-4.108-5.912-7.723-5.912h-25.958c-4.418 0-8 3.582-8 8v2.86l-138.53 66.654h-11.706c-1.876 0-3.693.66-5.132 1.863l-37.921 31.716c-2.582 2.159-3.536 5.703-2.387 8.867s4.154 5.27 7.52 5.27h31.378v32.383h-13.192c-4.418 0-8 3.582-8 8v42.382c0 4.418 3.582 8 8 8h42.382c4.418 0 8-3.582 8-8v-42.382c0-4.418-3.582-8-8-8h-13.191v-32.383h140.78v295.493h-25.301c-4.418 0-8 3.582-8 8v35.779c0 4.418 3.582 8 8 8h118.518c4.418 0 8-3.582 8-8v-35.779c0-4.418-3.582-8-8-8h-25.301v-295.493h17.538v3.134c0 4.418 3.582 8 8 8h53.985c4.418 0 8-3.582 8-8v-53.985c0-4.418-3.582-8-8-8zm-283.028 133.616h-26.382v-26.382h26.382zm151.589-11.536 32.602 32.602-32.602 32.602zm0 103.831 32.602 32.602-32.602 32.602zm35.916 51.916v65.202l-32.602-32.601zm0-38.628-32.602-32.602 32.602-32.601zm-32.603-136.432 32.602-32.602v65.204zm1.434-75.632-12.403 12.403-12.403-12.403zm57.549 0-7.682 11.24-11.24-11.24zm-165.101 3.313 12.403 12.403h-24.805zm-31.716 9.089-12.403-12.403h24.805zm51.029-12.402h24.806l-12.403 12.403zm44.12 3.313 12.403 12.403h-24.805zm63.432 0 12.402 12.403h-24.805zm47.391-27.724c-1.24 1.409-1.997 3.252-1.997 5.276v3.134h-24.417l-10.267-37.978zm-59.617-53.103 16.629 61.513h-28.463v-61.513zm-27.834 12.617v48.897h-101.628zm-150.719 67.728 12.884 12.884h-28.29zm191.321 28.885-24.602 24.602v-24.602zm-24.602 270.892 24.601 24.601h-24.601zm69.216 60.38h-102.517v-19.779h102.518v19.779zm54.223-336.138h-37.985v-37.985h37.985z"/></svg>