<?xml version="1.0"?>
<svg xmlns="http://www.w3.org/2000/svg" id="Layer_1" data-name="Layer 1" viewBox="0 0 512 512"><defs><style>.cls-1{fill-rule:evenodd;}</style></defs><path class="cls-1" d="M497.56,316.72,433.63,206a25.66,25.66,0,0,0-35-9.38l-22.23,12.84a25.51,25.51,0,0,0-9.52,34.49,121.32,121.32,0,0,1-14.55,6.44,38.63,38.63,0,0,1-26.59.5V93.72a9.24,9.24,0,0,0-9.22-9.22H302.65V64.15a9.23,9.23,0,0,0-9.23-9.21H283.2V39.72a9.07,9.07,0,0,0-2.44-6.26L262.77,14a9.19,9.19,0,0,0-13.55,0l-18,19.49a9.08,9.08,0,0,0-2.45,6.26V54.94H218.57a9.24,9.24,0,0,0-9.23,9.21V84.5H195.48a9.23,9.23,0,0,0-9.22,9.22V257.5c-13.23-2.62-26.86-6.09-41.13-13.57a25.54,25.54,0,0,0-9.52-34.5l-22.24-12.84a25.65,25.65,0,0,0-35,9.38L14.42,316.72a25.66,25.66,0,0,0,9.38,35L46,364.57a25.5,25.5,0,0,0,33.11-6.75c8.77,12.54,16.59,21.95,25.17,30.31l-2.54,4.41A25.53,25.53,0,0,0,130.26,430a25.5,25.5,0,0,0,35.63,25.8,25.49,25.49,0,0,0,25.28,22.69,25.83,25.83,0,0,0,14.89-4.72,25.51,25.51,0,0,0,24.5,18.68,26.39,26.39,0,0,0,6.69-.89,25.37,25.37,0,0,0,14.87-10.81l29.12,16.81a25.5,25.5,0,0,0,38-26,25.48,25.48,0,0,0,33.72-28,25.51,25.51,0,0,0,33.74-28A25.54,25.54,0,0,0,417,378.28a230.94,230.94,0,0,0,15.85-20.46A25.5,25.5,0,0,0,466,364.57l22.24-12.84A25.63,25.63,0,0,0,497.56,316.72ZM238.78,40,256,21.38,273.2,40V54.94H238.78ZM219.34,64.94h73.3V84.5h-73.3ZM196.26,94.5H315.73V246.78l-3.29-1.4a48.5,48.5,0,0,0-5.26-1.93V221.24A9.25,9.25,0,0,0,298,212H214a9.24,9.24,0,0,0-9.22,9.23V261c-2.8-.56-5.66-1.08-8.55-1.61ZM297.19,222v19.41a50.31,50.31,0,0,0-17.75,1.6L261,248V222ZM251,222v28.64l-9.77,2.62a48.55,48.55,0,0,0-20.86,11.35c-1.84-.51-3.69-1-5.55-1.45V222ZM116.13,418.77a15.6,15.6,0,0,1-5.69-21.23l20.63-35.74A15.54,15.54,0,0,1,158,377.34l-20.63,35.75A15.55,15.55,0,0,1,116.13,418.77Zm53,21.45a15.54,15.54,0,1,1-26.92-15.55l3.8-6.58h0l24.44-42.33a15.54,15.54,0,0,1,26.92,15.54Zm35.58,20.53a15.54,15.54,0,1,1-26.92-15.53l32-55.51a15.54,15.54,0,0,1,26.92,15.54Zm39.39,14a15.54,15.54,0,1,1-26.91-15.54l20.62-35.74a15.6,15.6,0,0,1,21.23-5.69,15.58,15.58,0,0,1,5.7,21.24Zm164.54-75.38A15.6,15.6,0,0,1,387.42,405l-50.25-29a5,5,0,0,0-5,8.66l37.15,21.45,0,0a15.58,15.58,0,0,1,5.56,21.15,15.59,15.59,0,0,1-21.23,5.7l-37.07-21.4a5,5,0,0,0-5,8.66l24,13.84a.13.13,0,0,0,.06.05A15.54,15.54,0,0,1,320,461l-23.88-13.79a5,5,0,1,0-5,8.66l10.79,6.23.05,0a15.54,15.54,0,0,1-15.68,26.83l-29.1-16.79L273.4,444a25.58,25.58,0,0,0-9.35-34.9,25.28,25.28,0,0,0-16.66-3.1,25.53,25.53,0,0,0-38.89-29.3,25.57,25.57,0,0,0-39.39-14,25.55,25.55,0,0,0-46.7-5.93l-12.92,22.39c-8.28-8.31-15.77-17.67-24.69-30.77l55.32-95.81c19.34,10.18,37.75,13.57,54.1,16.58,6.17,1.14,12.11,2.24,17.87,3.63l-23.58,23.58a16.44,16.44,0,0,0,0,23.22c10.24,10.23,34.42,14.61,50.55-1.52L254,303.18l19.52.59c18.56,18.8,37.34,27,53,30.16L403,378.1A15.57,15.57,0,0,1,408.65,399.33Zm1.54-28.45a25.73,25.73,0,0,0-2.23-1.44l-58.81-34c16.14-1,26.75-6.18,27.24-6.42a5,5,0,0,0-4.43-9c-.47.23-47.34,22.63-92.68-24.72a5.09,5.09,0,0,0-3.46-1.55l-23.71-.71a5.15,5.15,0,0,0-3.69,1.47L232,311c-12.27,12.27-30.49,7.44-36.41,1.52a6.43,6.43,0,0,1,0-9.08l30-30a38.48,38.48,0,0,1,18.21-10.53L282,252.69a38.85,38.85,0,0,1,26.5,1.89l10,4.24a49.21,49.21,0,0,0,37.26.93,134.31,134.31,0,0,0,16.12-7.15l55.31,95.81A241.56,241.56,0,0,1,410.19,370.88ZM214,198.52H298a9.24,9.24,0,0,0,9.23-9.22V167.53a9.23,9.23,0,0,0-9.23-9.22H214a9.23,9.23,0,0,0-9.22,9.22V189.3A9.24,9.24,0,0,0,214,198.52Zm62.36-30.21h20.8v20.21h-20.8Zm-30.78,0h20.78v20.21H245.61Zm-30.8,0H235.6v20.21H214.81Zm-.78-23.5H298a9.24,9.24,0,0,0,9.23-9.23V113.82A9.23,9.23,0,0,0,298,104.6H214a9.23,9.23,0,0,0-9.22,9.22v21.76A9.24,9.24,0,0,0,214,144.81Zm62.36-30.21h20.8v20.2h-20.8Zm-30.78,0h20.78v20.2H245.61Zm-30.8,0H235.6v20.2H214.81Z"/></svg>
