<svg id="Layer_1" enable-background="new 0 0 96 96" viewBox="0 0 96 96" xmlns="http://www.w3.org/2000/svg"><path clip-rule="evenodd" d="m20.915 17.732h.018v-1.953c0-.406.166-.774.433-1.042l.003-.003c.268-.268.636-.434 1.042-.434h52.882c.406 0 .774.166 1.042.434l.001.001.001-.001c.268.267.433.637.433 1.045v1.953h.018c.817 0 1.558.333 2.095.869.537.537.869 1.278.869 2.095v3.852 5.366c.579.075 1.098.343 1.492.736.468.468.758 1.114.758 1.825s-.29 1.357-.758 1.825c-.393.394-.913.661-1.492.736v4.968 1.382 32.054 3.89c0 .817-.333 1.558-.869 2.095-.537.537-1.278.869-2.095.869h-57.576c-.817 0-1.558-.333-2.094-.869-.537-.537-.869-1.278-.869-2.095v-3.89-33.436-4.968c-.579-.075-1.098-.343-1.491-.736-.468-.468-.758-1.114-.758-1.825s.291-1.357.758-1.825 1.113-.758 1.824-.758h1.369v-5.344-3.852c0-.817.333-1.558.869-2.095s1.278-.869 2.095-.869zm-8.169-2.443 2.543-2.543-4.047-4.046c-.212-.213-.32-.494-.32-.774 0-.279.106-.56.32-.774l.621-.621-7.117-1.785 1.785 7.116.621-.621c.022-.022.045-.043.069-.062.203-.172.454-.259.704-.259.278 0 .557.107.77.32l.002.002.002-.002zm4.103-2.023c.287-.288.287-.753 0-1.04l-4.3-4.3.823-.824c.022-.021.042-.044.06-.068.107-.126.183-.271.224-.427.049-.184.048-.378-.005-.569-.053-.192-.153-.359-.29-.492-.137-.134-.307-.23-.498-.278l-8.368-2.099c-.017-.004-.033-.007-.05-.01-.17-.035-.342-.029-.507.017-.18.05-.344.145-.481.282l-.001-.002c-.135.135-.23.3-.28.482-.05.179-.053.368-.007.554l.001.003h-.001l2.098 8.368c.048.192.144.361.277.498.134.137.301.237.492.29.192.053.386.054.569.005.187-.049.356-.145.496-.284l.823-.824 4.3 4.3c.287.287.753.287 1.04 0zm-1.56 69.988-2.543-2.543-4.047 4.047c-.023.023-.047.044-.072.063-.2.168-.45.253-.701.254-.281.001-.562-.104-.775-.317l-.621-.621-1.784 7.117 7.116-1.784-.621-.621c-.212-.212-.318-.492-.318-.774h-.003c0-.28.107-.56.32-.774zm-2.023-4.102c-.287-.287-.753-.287-1.04 0l-4.3 4.3-.823-.823c-.022-.022-.044-.042-.068-.06-.126-.107-.271-.183-.427-.224-.184-.048-.378-.048-.57.005s-.359.153-.492.29c-.134.137-.23.307-.277.498l-2.098 8.368c-.046.186-.043.376.007.557.05.18.145.344.282.481l-.001.001c.135.135.3.23.482.28.179.05.368.053.554.007l.003-.001v.001l8.368-2.098c.192-.048.361-.144.498-.277.137-.134.237-.301.289-.493.053-.192.054-.386.005-.569-.049-.187-.145-.356-.284-.495l-.824-.824 4.301-4.3c.287-.287.287-.753 0-1.04zm69.988 1.559-2.543 2.543 4.047 4.047c.212.213.32.494.32.774h-.003c0 .279-.105.559-.317.771l-.001.001.001.001-.621.621 7.116 1.785-1.784-7.117-.621.621c-.023.022-.046.043-.07.062-.203.172-.454.258-.704.258-.28 0-.56-.107-.773-.32zm-4.103 2.023c-.287.287-.287.753 0 1.04l4.3 4.3-.824.823c-.022.022-.042.044-.06.068-.107.126-.183.271-.224.427-.049.184-.048.378.005.569.053.192.153.359.29.492.137.134.307.23.497.278l8.368 2.098c.017.004.033.008.05.01.17.035.343.028.507-.017.179-.05.344-.145.481-.282l.002.001c.135-.135.23-.3.28-.482.05-.18.053-.368.007-.554l-.001-.003h.001l-2.099-8.368c-.048-.192-.144-.361-.277-.497-.133-.137-.301-.237-.492-.29-.192-.053-.386-.054-.569-.005-.187.049-.356.145-.495.284l-.824.823-4.3-4.3c-.287-.287-.753-.287-1.04 0zm1.561-69.988 2.543 2.543 4.047-4.047c.022-.022.046-.043.07-.062.203-.171.454-.258.704-.258v.003c.281 0 .562.105.774.317l.621.621 1.784-7.116-7.116 1.784.621.621c.022.022.043.045.061.069.173.203.259.454.259.704 0 .278-.107.557-.32.771l-.001.001.001.002zm2.022 4.103c.287.287.753.287 1.04 0l4.3-4.3.823.824c.022.021.044.041.068.06.126.108.271.183.427.224.184.049.378.048.57-.005s.359-.153.492-.29c.134-.137.229-.307.277-.498l2.099-8.368c.004-.017.008-.033.01-.05.035-.17.028-.342-.017-.507-.05-.179-.145-.344-.282-.481l.001-.001c-.135-.135-.3-.23-.482-.28-.179-.05-.368-.053-.554-.007h-.001v-.001l-8.368 2.098c-.192.048-.361.144-.497.277-.137.133-.237.301-.29.493-.053.191-.054.385-.005.569.049.187.145.356.284.495l.824.824-4.3 4.3c-.287.287-.287.753 0 1.04zm-58.671 34.929h15.865c.406 0 .736.329.736.736v20.19h37.617v-27.716l-.046.047c-.417.417-.905.763-1.443 1.019v21.984c0 .406-.329.736-.735.736h-29.275c-.406 0-.736-.329-.736-.736v-21.872c-.639-.263-1.215-.65-1.696-1.132-.299-.299-.562-.635-.782-1-.219.365-.482.7-.781 1-.936.936-2.228 1.517-3.649 1.517-1.422 0-2.714-.581-3.65-1.517-.299-.299-.562-.635-.782-1-.219.365-.482.7-.781 1-.936.936-2.228 1.517-3.649 1.517-1.422 0-2.713-.581-3.649-1.517-.299-.299-.562-.635-.781-1-.219.365-.482.7-.782 1-.936.936-2.228 1.517-3.649 1.517-1.422 0-2.714-.581-3.65-1.517l-.046-.047v27.716h5.609v-20.19c0-.406.329-.735.735-.735zm15.13 1.471h-14.394v19.455h14.394zm-21.474-18.192v4.211h7.391v-4.211zm0 5.682v.646c0 1.015.416 1.939 1.086 2.609s1.594 1.086 2.61 1.086c1.015 0 1.939-.416 2.609-1.086s1.086-1.594 1.086-2.609v-.646zm8.862-5.682v4.211h7.391v-4.211zm0 5.682v.646c0 1.015.416 1.939 1.086 2.609s1.594 1.086 2.609 1.086c1.016 0 1.939-.416 2.609-1.086s1.086-1.594 1.086-2.609v-.646zm8.862-5.682v4.211h7.391v-4.211zm0 5.682v.646c0 1.015.416 1.939 1.086 2.609s1.594 1.086 2.609 1.086c1.016 0 1.939-.416 2.61-1.086.67-.67 1.086-1.594 1.086-2.609v-.646zm42.838-15.456h-9.381c-.406 0-.736-.329-.736-.735s.329-.736.736-.736h9.381v-3.116c0-.41-.168-.784-.438-1.055-.27-.27-.644-.438-1.055-.438h-.753-54.367-.753c-.411 0-.784.168-1.055.438-.271.271-.438.644-.438 1.055v3.116h11.066c.406 0 .736.329.736.736 0 .406-.329.735-.736.735h-11.066v4.609h58.859zm-55.878-7.551h52.896v-1.953c0-.001-.001-.003-.003-.005l.001-.001-.006-.002h-52.88l-.006.002-.001.006v1.953zm47.025 42.409h1.66v-5.532h-1.66zm2.396 1.471c.406 0 .736-.329.736-.736v-7.003c0-.406-.329-.736-.736-.736h-3.131c-.406 0-.735.329-.735.736v7.003c0 .406.329.736.735.736zm-12.268-1.471h4.79v-7.841h-4.79zm5.526 1.471c.406 0 .736-.329.736-.736v-9.311c0-.406-.329-.736-.736-.736h-6.262c-.406 0-.735.329-.735.736v9.311c0 .406.329.736.735.736zm-13.331-1.471h2.723v-3.04h-2.723zm3.459 1.471c.406 0 .735-.329.735-.736v-4.51c0-.406-.329-.735-.735-.735h-4.194c-.406 0-.736.329-.736.735v4.51c0 .406.329.736.736.736zm-4.195 2.54h20.808c.406 0 .736-.329.736-.736 0-.406-.329-.736-.736-.736h-20.808c-.406 0-.736.329-.736.736.001.406.33.736.736.736zm27.266 10.023h-38.352-15.866-6.344v3.155c0 .411.168.784.439 1.055.27.271.644.438 1.054.438h57.576c.411 0 .784-.168 1.055-.438.271-.271.438-.644.438-1.055zm-30.763-27.646v20.773h27.804v-20.803c-.24.035-.486.052-.736.052-1.422 0-2.714-.581-3.65-1.517-.299-.299-.562-.635-.781-1-.219.364-.482.7-.782 1-.936.936-2.228 1.517-3.649 1.517-1.422 0-2.713-.581-3.649-1.517-.299-.299-.562-.635-.781-1-.219.365-.482.7-.782 1-.936.936-2.228 1.517-3.649 1.517-1.422 0-2.714-.581-3.65-1.517-.299-.299-.562-.635-.782-1-.219.365-.482.7-.782 1-.936.936-2.228 1.517-3.649 1.517-.162 0-.323-.007-.482-.022zm-3.213-7.261h7.391v-4.211h-7.391zm8.861 0h7.391v-4.211h-7.391zm8.862 0h7.391v-4.211h-7.391zm8.862 0h7.391v-4.211h-7.391zm7.391 1.471h-7.391v.646c0 1.015.416 1.939 1.086 2.609s1.594 1.086 2.609 1.086c.426 0 .837-.073 1.218-.208l.006-.002h.001c.525-.186.997-.488 1.384-.876.67-.67 1.086-1.594 1.086-2.609v-.646zm-8.862 0h-7.391v.646c0 1.015.416 1.939 1.086 2.609s1.594 1.086 2.609 1.086c1.016 0 1.939-.416 2.609-1.086s1.086-1.594 1.086-2.609v-.646zm-8.862 0h-7.391v.646c0 1.015.416 1.939 1.086 2.609s1.594 1.086 2.61 1.086c1.015 0 1.939-.416 2.609-1.086s1.086-1.594 1.086-2.609zm-8.861 0h-7.391v.646c0 1.015.416 1.939 1.086 2.609s1.594 1.086 2.609 1.086 1.939-.416 2.609-1.086 1.086-1.594 1.086-2.609v-.646zm27.32-9.376h-60.33-2.105c-.305 0-.583.125-.784.327-.202.202-.327.48-.327.785s.125.583.327.785.48.327.784.327h.402 8.862 8.862 8.862 8.862 8.862 8.862 8.862.402c.305 0 .583-.126.785-.327.202-.202.327-.48.327-.785s-.126-.583-.327-.785c-.202-.202-.48-.327-.785-.327z" fill-rule="evenodd"/></svg>