<svg id="Layer_1" enable-background="new 0 0 48 48" viewBox="0 0 48 48" xmlns="http://www.w3.org/2000/svg"><g><path d="m14.31 47.71 7.2-7.01-.99-1.01 3.28-2.28 1.15 1.15h15.46v-1c0-3.89-3.17-7.06-7.07-7.06h-5.04l-3.52-3.52v-11.95l6.68-6.68h2.63c3.89 0 7.06-3.17 7.06-7.06v-1h-14.43l-1.49 1.5c-2.08-1.85-5.28-1.78-7.27.21l-1.73 1.73c-2.14-1.1-4.83-.73-6.56 1l-2.27 2.28c-1.4 1.4-2.12 3.35-1.97 5.33l1.13 14.89-6.26 6.11zm.03-2.83-11.22-11.51 4.33-4.22 11.23 11.51zm-5.52-36.46 2.26-2.27c.96-.96 2.36-1.26 3.61-.88l-2.17 2.17 1.41 1.41 2.54-2.54.19-.19.42-.42 2.29-2.29c1.21-1.21 3.13-1.27 4.42-.2l-2.71 2.71 1.41 1.41 2.73-2.73 2.32-2.33h11.5c-.46 2.31-2.51 4.06-4.96 4.06h-3.46l-7.85 7.85v13.6l4.69 4.69h5.87c2.45 0 4.5 1.75 4.97 4.06h-12.52l-1.75-1.75-4.92 3.43-5.84-5.99-4.69-4.8-1.16-15.23c-.1-1.4.41-2.78 1.4-3.77z"/><path d="m37.22 9.1c-5.78 0-10.48 4.7-10.48 10.48s4.7 10.48 10.48 10.48 10.48-4.7 10.48-10.48-4.7-10.48-10.48-10.48zm0 18.97c-4.68 0-8.48-3.81-8.48-8.48s3.81-8.48 8.48-8.48 8.48 3.81 8.48 8.48-3.8 8.48-8.48 8.48z"/><path d="m32.82 13.23h-.58v2h.58 4.59c.84 0 1.57.48 1.93 1.19h-7.11v2h7.11c-.36.7-1.09 1.19-1.93 1.19h-4.59v2h.52l5.61 5.73 1.43-1.4-4.24-4.34h1.28c1.96 0 3.6-1.36 4.05-3.19h.75v-2h-.75c-.11-.43-.27-.82-.5-1.19h1.24v-2h-4.8-4.59z"/></g></svg>