<svg id="svg2172" height="512" viewBox="0 0 135.46666 135.46667" width="512" xmlns="http://www.w3.org/2000/svg" xmlns:svg="http://www.w3.org/2000/svg"><g id="layer1"><path id="path1233" d="m29.633683 75.732278a2.1166649 2.1166649 0 0 0 -2.1171 2.11719v10.23824c-2.694-2.5962-6.4401-4.2714-10.584-4.2714-8.158 0-14.8164 6.6584-14.8164 14.8164a2.1166649 2.1166649 0 0 0 2.1171 2.117102 2.1166649 2.1166649 0 0 0 2.1172-2.117102c0-5.8701 4.712-10.5821 10.5821-10.5821s10.584 4.915 10.584 9.5235a2.11715 2.11715 0 0 0 4.2343 0v-19.72464a2.1166649 2.1166649 0 0 0 -2.1172-2.11719z" font-variant-ligatures="normal" font-variant-position="normal" font-variant-caps="normal" font-variant-numeric="normal" font-variant-alternates="normal" font-variant-east-asian="normal" font-feature-settings="normal" font-variation-settings="normal" text-indent="0" text-align="start" text-decoration-line="none" text-decoration-style="solid" text-decoration-color="rgb(0,0,0)" text-transform="none" text-orientation="mixed" white-space="normal" shape-padding="0" shape-margin="0" inline-size="0" isolation="auto" mix-blend-mode="normal" solid-color="rgb(0,0,0)" solid-opacity="1" vector-effect="none"/><path id="circle1235" d="m27.555083 66.357198a2.0695419 2.0695419 0 0 1 2.0695-2.06954 2.0695419 2.0695419 0 0 1 2.0695 2.06954 2.0695419 2.0695419 0 0 1 -2.0695 2.06954 2.0695419 2.0695419 0 0 1 -2.0695-2.06954z"/><path id="circle1237" d="m27.555083 72.107198a2.0695419 2.0695419 0 0 1 2.0695-2.06954 2.0695419 2.0695419 0 0 1 2.0695 2.06954 2.0695419 2.0695419 0 0 1 -2.0695 2.06954 2.0695419 2.0695419 0 0 1 -2.0695-2.06954z"/><path id="path1241" d="m16.932583 32.212748c-8.158 0-14.8164 6.65845-14.8164 14.8164v62.666062c0 4.0648 1.7224 7.5736 4.455 9.9296 2.7313 2.3549 6.4046 3.6023 10.3555 3.6036 31.048.1069 66.185.1159 97.232397.041 3.1881 0 5.8203-2.6341 5.8203-5.8223v-43.453112c.0003-1.16863-.9466-2.11638-2.1152-2.11719-1.1694-.0003-2.1175.94777-2.1172 2.11719v43.453112c0 .9161-.6718 1.5879-1.5879 1.5879-33.492797.041-67.636797.059-97.218697-.039-2.8261-.2838-5.7131-.9955-7.6077-2.5781-1.8639-1.607-2.9844-3.8073-2.9844-6.7226v-62.666062c0-5.87008 4.712-10.58398 10.5821-10.58398 5.87 0 10.584 4.7139 10.584 10.58398v13.54102c-.0003 1.16938.9477 2.11743 2.1171 2.11719 1.1694.0003 2.1175-.94777 2.1172-2.11719v-11.42383h39.6973c1.1694.0003 2.1175-.94777 2.1172-2.11719.0003-1.16941-.9478-2.11748-2.1172-2.11718h-39.9121c-1.0405-7.15391-7.17-12.69922-14.6035-12.69922z" font-variant-ligatures="normal" font-variant-position="normal" font-variant-caps="normal" font-variant-numeric="normal" font-variant-alternates="normal" font-variant-east-asian="normal" font-feature-settings="normal" font-variation-settings="normal" text-indent="0" text-align="start" text-decoration-line="none" text-decoration-style="solid" text-decoration-color="rgb(0,0,0)" text-transform="none" text-orientation="mixed" white-space="normal" shape-padding="0" shape-margin="0" inline-size="0" isolation="auto" mix-blend-mode="normal" solid-color="rgb(0,0,0)" solid-opacity="1" vector-effect="none"/><path id="circle1243" d="m105.03608 12.148288c-15.612597 0-28.314497 12.70184-28.314497 28.31446s12.7019 28.31445 28.314497 28.31445c15.6126 0 28.3144-12.70183 28.3144-28.31445s-12.7018-28.31446-28.3144-28.31446zm0 4.23243c13.3247 0 24.0801 10.75727 24.0801 24.08203s-10.7554 24.08203-24.0801 24.08203c-13.324797 0-24.082097-10.75727-24.082097-24.08203s10.7573-24.08203 24.082097-24.08203z" font-variant-ligatures="normal" font-variant-position="normal" font-variant-caps="normal" font-variant-numeric="normal" font-variant-alternates="normal" font-variant-east-asian="normal" font-feature-settings="normal" font-variation-settings="normal" text-indent="0" text-align="start" text-decoration-line="none" text-decoration-style="solid" text-decoration-color="rgb(0,0,0)" text-transform="none" text-orientation="mixed" white-space="normal" shape-padding="0" shape-margin="0" inline-size="0" isolation="auto" mix-blend-mode="normal" solid-color="rgb(0,0,0)" solid-opacity="1" vector-effect="none"/><path id="circle1245" d="m105.03608 20.796728c-10.836297 0-19.665997 8.82973-19.665997 19.66602 0 10.83628 8.8297 19.66601 19.665997 19.66601 10.8363 0 19.666-8.82973 19.666-19.66601 0-10.83629-8.8297-19.66602-19.666-19.66602zm0 4.23242c8.5484 0 15.4316 6.88518 15.4316 15.4336s-6.8832 15.43359-15.4316 15.43359c-8.548397 0-15.433597-6.88517-15.433597-15.43359s6.8852-15.4336 15.433597-15.4336z" font-variant-ligatures="normal" font-variant-position="normal" font-variant-caps="normal" font-variant-numeric="normal" font-variant-alternates="normal" font-variant-east-asian="normal" font-feature-settings="normal" font-variation-settings="normal" text-indent="0" text-align="start" text-decoration-line="none" text-decoration-style="solid" text-decoration-color="rgb(0,0,0)" text-transform="none" text-orientation="mixed" white-space="normal" shape-padding="0" shape-margin="0" inline-size="0" isolation="auto" mix-blend-mode="normal" solid-color="rgb(0,0,0)" solid-opacity="1" vector-effect="none"/><path id="path1247" d="m102.22548 35.536968a2.1166699 2.1166699 0 0 0 -2.1152 2.11718v5.61719a2.1168816 2.1168816 0 0 0 2.1152 2.11719h5.6192a2.1166699 2.1166699 0 0 0 2.1172-2.11719 2.1166699 2.1166699 0 0 0 -2.1172-2.11523h-3.502v-3.50196a2.1166699 2.1166699 0 0 0 -2.1172-2.11718z" font-variant-ligatures="normal" font-variant-position="normal" font-variant-caps="normal" font-variant-numeric="normal" font-variant-alternates="normal" font-variant-east-asian="normal" font-feature-settings="normal" font-variation-settings="normal" text-indent="0" text-align="start" text-decoration-line="none" text-decoration-style="solid" text-decoration-color="rgb(0,0,0)" text-transform="none" text-orientation="mixed" white-space="normal" shape-padding="0" shape-margin="0" inline-size="0" isolation="auto" mix-blend-mode="normal" solid-color="rgb(0,0,0)" solid-opacity="1" vector-effect="none"/><path id="circle1249" d="m45.682583 97.831908c-4.9113 0-8.9375 4.026302-8.9375 8.937502s4.0262 8.9375 8.9375 8.9375c4.9112 0 8.9375-4.0263 8.9375-8.9375s-4.0263-8.937502-8.9375-8.937502zm0 4.232402c2.6233 0 4.705 2.0817 4.705 4.7051 0 2.6233-2.0817 4.7051-4.705 4.7051-2.6234 0-4.7051-2.0818-4.7051-4.7051 0-2.6234 2.0817-4.7051 4.7051-4.7051z" font-variant-ligatures="normal" font-variant-position="normal" font-variant-caps="normal" font-variant-numeric="normal" font-variant-alternates="normal" font-variant-east-asian="normal" font-feature-settings="normal" font-variation-settings="normal" text-indent="0" text-align="start" text-decoration-line="none" text-decoration-style="solid" text-decoration-color="rgb(0,0,0)" text-transform="none" text-orientation="mixed" white-space="normal" shape-padding="0" shape-margin="0" inline-size="0" isolation="auto" mix-blend-mode="normal" solid-color="rgb(0,0,0)" solid-opacity="1" vector-effect="none"/><path id="circle1251" d="m68.832983 71.786968c-4.9113 0-8.9375 4.02627-8.9375 8.9375 0 4.91124 4.0262 8.93754 8.9375 8.93754 4.9112 0 8.9375-4.0263 8.9375-8.93754 0-4.91123-4.0263-8.9375-8.9375-8.9375zm0 4.23242c2.6233 0 4.705 2.08171 4.705 4.70508 0 2.62334-2.0817 4.70504-4.705 4.70504-2.6234 0-4.7051-2.0817-4.7051-4.70504 0-2.62337 2.0817-4.70508 4.7051-4.70508z" font-variant-ligatures="normal" font-variant-position="normal" font-variant-caps="normal" font-variant-numeric="normal" font-variant-alternates="normal" font-variant-east-asian="normal" font-feature-settings="normal" font-variation-settings="normal" text-indent="0" text-align="start" text-decoration-line="none" text-decoration-style="solid" text-decoration-color="rgb(0,0,0)" text-transform="none" text-orientation="mixed" white-space="normal" shape-padding="0" shape-margin="0" inline-size="0" isolation="auto" mix-blend-mode="normal" solid-color="rgb(0,0,0)" solid-opacity="1" vector-effect="none"/><path id="circle1253" d="m91.364183 97.831908c-4.9112 0-8.9375 4.026302-8.9375 8.937502s4.0263 8.9375 8.9375 8.9375 8.937497-4.0263 8.937497-8.9375-4.026297-8.937502-8.937497-8.937502zm0 4.232402c2.6234 0 4.7051 2.0817 4.7051 4.7051 0 2.6233-2.0817 4.7051-4.7051 4.7051s-4.7051-2.0818-4.7051-4.7051c0-2.6234 2.0817-4.7051 4.7051-4.7051z" font-variant-ligatures="normal" font-variant-position="normal" font-variant-caps="normal" font-variant-numeric="normal" font-variant-alternates="normal" font-variant-east-asian="normal" font-feature-settings="normal" font-variation-settings="normal" text-indent="0" text-align="start" text-decoration-line="none" text-decoration-style="solid" text-decoration-color="rgb(0,0,0)" text-transform="none" text-orientation="mixed" white-space="normal" shape-padding="0" shape-margin="0" inline-size="0" isolation="auto" mix-blend-mode="normal" solid-color="rgb(0,0,0)" solid-opacity="1" vector-effect="none"/><path id="path1255" d="m63.977483 83.773308a2.1166649 2.1166649 0 0 0 -1.6133.7969l-12.7148 15.931602a2.1166649 2.1166649 0 0 0 .3339 2.9746 2.1166649 2.1166649 0 0 0 2.9747-.334l12.7168-15.931602a2.1166649 2.1166649 0 0 0 -.334-2.9746 2.1166649 2.1166649 0 0 0 -1.3633-.4629z" font-variant-ligatures="normal" font-variant-position="normal" font-variant-caps="normal" font-variant-numeric="normal" font-variant-alternates="normal" font-variant-east-asian="normal" font-feature-settings="normal" font-variation-settings="normal" text-indent="0" text-align="start" text-decoration-line="none" text-decoration-style="solid" text-decoration-color="rgb(0,0,0)" text-transform="none" text-orientation="mixed" white-space="normal" shape-padding="0" shape-margin="0" inline-size="0" isolation="auto" mix-blend-mode="normal" solid-color="rgb(0,0,0)" solid-opacity="1" vector-effect="none"/><path id="path1257" d="m74.442283 83.773308a2.1166649 2.1166649 0 0 0 -1.3808.4746 2.1166649 2.1166649 0 0 0 -.3067 2.9785l12.7168 15.638702a2.1166649 2.1166649 0 0 0 2.9766.3066 2.1166649 2.1166649 0 0 0 .3066-2.9785l-12.7148-15.638702a2.1166649 2.1166649 0 0 0 -1.5977-.7812z" font-variant-ligatures="normal" font-variant-position="normal" font-variant-caps="normal" font-variant-numeric="normal" font-variant-alternates="normal" font-variant-east-asian="normal" font-feature-settings="normal" font-variation-settings="normal" text-indent="0" text-align="start" text-decoration-line="none" text-decoration-style="solid" text-decoration-color="rgb(0,0,0)" text-transform="none" text-orientation="mixed" white-space="normal" shape-padding="0" shape-margin="0" inline-size="0" isolation="auto" mix-blend-mode="normal" solid-color="rgb(0,0,0)" solid-opacity="1" vector-effect="none"/><path id="path1259" d="m109.74508 83.773308a2.1166649 2.1166649 0 0 0 -1.6192.7812l-12.716797 15.638702a2.1166649 2.1166649 0 0 0 .3086 2.9785 2.1166649 2.1166649 0 0 0 2.9766-.3066l12.716797-15.638702a2.1166649 2.1166649 0 0 0 -.3067-2.9785 2.1166649 2.1166649 0 0 0 -1.3593-.4746z" font-variant-ligatures="normal" font-variant-position="normal" font-variant-caps="normal" font-variant-numeric="normal" font-variant-alternates="normal" font-variant-east-asian="normal" font-feature-settings="normal" font-variation-settings="normal" text-indent="0" text-align="start" text-decoration-line="none" text-decoration-style="solid" text-decoration-color="rgb(0,0,0)" text-transform="none" text-orientation="mixed" white-space="normal" shape-padding="0" shape-margin="0" inline-size="0" isolation="auto" mix-blend-mode="normal" solid-color="rgb(0,0,0)" solid-opacity="1" vector-effect="none"/><path id="path1261" d="m72.431083 105.40011a2.1166699 2.1166699 0 0 0 -1.3711.5l-7.1856 6.0743a2.1166699 2.1166699 0 0 0 -.25 2.9824 2.1166699 2.1166699 0 0 0 2.9824.25l7.1856-6.0742a2.1166699 2.1166699 0 0 0 .25-2.9825 2.1166699 2.1166699 0 0 0 -1.6113-.75z" font-variant-ligatures="normal" font-variant-position="normal" font-variant-caps="normal" font-variant-numeric="normal" font-variant-alternates="normal" font-variant-east-asian="normal" font-feature-settings="normal" font-variation-settings="normal" text-indent="0" text-align="start" text-decoration-line="none" text-decoration-style="solid" text-decoration-color="rgb(0,0,0)" text-transform="none" text-orientation="mixed" white-space="normal" shape-padding="0" shape-margin="0" inline-size="0" isolation="auto" mix-blend-mode="normal" solid-color="rgb(0,0,0)" solid-opacity="1" vector-effect="none"/><path id="path1263" d="m65.257183 105.40011a2.1166699 2.1166699 0 0 0 -1.6328.75 2.1166699 2.1166699 0 0 0 .25 2.9825l7.1856 6.0742a2.1166699 2.1166699 0 0 0 2.9824-.25 2.1166699 2.1166699 0 0 0 -.25-2.9824l-7.1856-6.0743a2.1166699 2.1166699 0 0 0 -1.3496-.5z" font-variant-ligatures="normal" font-variant-position="normal" font-variant-caps="normal" font-variant-numeric="normal" font-variant-alternates="normal" font-variant-east-asian="normal" font-feature-settings="normal" font-variation-settings="normal" text-indent="0" text-align="start" text-decoration-line="none" text-decoration-style="solid" text-decoration-color="rgb(0,0,0)" text-transform="none" text-orientation="mixed" white-space="normal" shape-padding="0" shape-margin="0" inline-size="0" isolation="auto" mix-blend-mode="normal" solid-color="rgb(0,0,0)" solid-opacity="1" vector-effect="none"/><path id="path1267" d="m94.961983 71.786778a2.1166699 2.1166699 0 0 0 -1.3711.5l-7.1856 6.07422a2.1166699 2.1166699 0 0 0 -.25 2.98242 2.1166699 2.1166699 0 0 0 2.9824.25l7.1856-6.07422a2.1166699 2.1166699 0 0 0 .25-2.98242 2.1166699 2.1166699 0 0 0 -1.6113-.75z" font-variant-ligatures="normal" font-variant-position="normal" font-variant-caps="normal" font-variant-numeric="normal" font-variant-alternates="normal" font-variant-east-asian="normal" font-feature-settings="normal" font-variation-settings="normal" text-indent="0" text-align="start" text-decoration-line="none" text-decoration-style="solid" text-decoration-color="rgb(0,0,0)" text-transform="none" text-orientation="mixed" white-space="normal" shape-padding="0" shape-margin="0" inline-size="0" isolation="auto" mix-blend-mode="normal" solid-color="rgb(0,0,0)" solid-opacity="1" vector-effect="none"/><path id="path1269" d="m87.788083 71.786778a2.1166699 2.1166699 0 0 0 -1.6328.75 2.1166699 2.1166699 0 0 0 .25 2.98242l7.1856 6.07422a2.1166699 2.1166699 0 0 0 2.9824-.25 2.1166699 2.1166699 0 0 0 -.25-2.98242l-7.1856-6.07422a2.1166699 2.1166699 0 0 0 -1.3496-.5z" font-variant-ligatures="normal" font-variant-position="normal" font-variant-caps="normal" font-variant-numeric="normal" font-variant-alternates="normal" font-variant-east-asian="normal" font-feature-settings="normal" font-variation-settings="normal" text-indent="0" text-align="start" text-decoration-line="none" text-decoration-style="solid" text-decoration-color="rgb(0,0,0)" text-transform="none" text-orientation="mixed" white-space="normal" shape-padding="0" shape-margin="0" inline-size="0" isolation="auto" mix-blend-mode="normal" solid-color="rgb(0,0,0)" solid-opacity="1" vector-effect="none"/><path id="path1273" d="m58.065383 53.382668-20.3848.12305a2.1166649 2.1166649 0 0 0 -2.1035 2.1289 2.1166649 2.1166649 0 0 0 2.1289 2.10547l20.3848-.12305a2.1166649 2.1166649 0 0 0 2.1035-2.13085 2.1166649 2.1166649 0 0 0 -2.1289-2.10352z" font-variant-ligatures="normal" font-variant-position="normal" font-variant-caps="normal" font-variant-numeric="normal" font-variant-alternates="normal" font-variant-east-asian="normal" font-feature-settings="normal" font-variation-settings="normal" text-indent="0" text-align="start" text-decoration-line="none" text-decoration-style="solid" text-decoration-color="rgb(0,0,0)" text-transform="none" text-orientation="mixed" white-space="normal" shape-padding="0" shape-margin="0" inline-size="0" isolation="auto" mix-blend-mode="normal" solid-color="rgb(0,0,0)" solid-opacity="1" vector-effect="none"/><path id="path1275" d="m58.065383 61.861188-20.3848.12304a2.1166649 2.1166649 0 0 0 -2.1035 2.12891 2.1166649 2.1166649 0 0 0 2.1289 2.10351l20.3848-.12304a2.1166649 2.1166649 0 0 0 2.1035-2.12891 2.1166649 2.1166649 0 0 0 -2.1289-2.10351z" font-variant-ligatures="normal" font-variant-position="normal" font-variant-caps="normal" font-variant-numeric="normal" font-variant-alternates="normal" font-variant-east-asian="normal" font-feature-settings="normal" font-variation-settings="normal" text-indent="0" text-align="start" text-decoration-line="none" text-decoration-style="solid" text-decoration-color="rgb(0,0,0)" text-transform="none" text-orientation="mixed" white-space="normal" shape-padding="0" shape-margin="0" inline-size="0" isolation="auto" mix-blend-mode="normal" solid-color="rgb(0,0,0)" solid-opacity="1" vector-effect="none"/></g></svg>