<svg id="Layer_1" enable-background="new 0 0 500 500" viewBox="0 0 500 500" xmlns="http://www.w3.org/2000/svg"><path clip-rule="evenodd" d="m115.992 112.994c.165-.203.379-.412.588-.555 1.015-.678 2.468-2.363 3.76-3.513 3.85-3.425 8.874-7.931 12.946-10.972 11.155-8.493 23.209-18.653 35.236-25.617.421-.244 6.093-3.317 5.431-3.655-.522-.061-1.149.396-1.627.203.434-1.268.942-.99-.258-.99.73-.417 2.662-1.45 3.106-2.023-2.59-.302-8.256 1.534-10.56 3.013-.356.227-4.295 2.008-4.964 1.891-1.394-.243-6.043 3.434-8.9 4.574-3.499 1.396-9.641 4.911-12.869 6.888-.814.5-1.572 1.132-2.408 1.572l-4.777 2.875c-1.914.52-3.135 1.96-4.755 3.067-7.637 5.222-23.269 19.174-28.981 25.781-1.622 1.842-3.276 3.655-4.92 5.481-4.168 4.688-13.578 17.07-17.162 22.467-5.281 7.951-11.658 19.22-15.601 27.87l-5.349 12.968c-2.313 6.375-3.288 10.891-5.162 17.035-.951 3.304-1.363 6.707-2.408 9.999-.91 3.078-2.503 13.477-3.04 17.08-2.239 15.03-2.011 37.57.028 52.761.269 1.968.456 3.958.791 5.92.253 1.473.61 2.93.819 4.392l1.6 8.603c2.84 12.15 3.325 13.617 7.377 24.435.462 1.22.808 2.49 1.391 3.655.968 1.974 2.199 3.777 2.886 5.942.033.105.093.209.159.297 1.146 1.542 1.34 3.464 2.815 5.354.611.783 4.831 9.627 6.289 12.022 1.465 2.407 3.346 4.872 4.607 7.284.649 1.22 1.402 2.364 2.133 3.529l-2.243-.55c-.215.065-.048-.34-.632-.264-.417.055-3.46-1.246-5.134-.973-3.357.548-3.47.837-6.311 1.484-2.25.512-.938.808-1.589 1.688l-.165.528c-.936.356-.89.114-.676 1.429.216 1.33 1.81.734 1.66 1.655-.129.79 1.108.071 1.484.649.727 1.117 3.032 1.925 3.051 2.375.032.76.404.464.726.621.132.071.236.203.374.264l9.642 4.541 6.503 3.447c1.451.556 4.547 1.478 6.03 1.539 3.793.176 7.009-2.749 7.185-6.547.006-.193.028-.385.088-.566.176-.528-.138-1.121.198-1.621.435-1.118 1.208-11.021 1.616-12.759.385-1.105.702-4.011.297-5.217l.049-.902c-.198-.379-.588-.792-.401-1.121.011-.017 0-.044-.022-.061-.391-.319.132-.611-.352-1.033-.396-.346.16-1.631-.363-2.836-.394-.91.3-1.579-.253-1.962-1.274-.883-.452-1.174-1.254-1.523-.604-.263-.208-.436-.478-.533-.467-.165-.55-.324-.737-.511-1.015.417-2.612.145-3.859.808-2.029 1.079-3.2 2.777-3.859 3.161-1.403.817-2.321 4.54-2.55 6.085l-.401 1.209-.759 3.183c-1.204-3.004-4.635-11.115-5.277-13.737-.687-2.776-4.789-12.916-6.157-16.816-.966-2.754-5.712-17.222-6.102-19.383-.401-2.15-.94-4.271-1.468-6.393-2.561-11.169-4.634-27.039-5.107-38.26l-.154-3.782c-.438-9.479.692-30.447 2.485-39.343l2.226-10.653c.308-1.248.484-2.518.775-3.771.697-2.834 4.753-16.527 5.926-18.982l2.562-7.207c1.044-2.468 2.16-4.903 3.1-7.41l2.045-4.189c4.085-8.351 9.927-18.255 15.579-26.133 4.671-6.5 9.668-13.418 15.051-19.317l5.035-5.442c1.388-1.577 3.098-2.847 4.395-4.502zm328.337 247.843c0 .346.471.531-.181.935-.371.229.052 2.678-.539 3.776-.326.605.932 1.312.176 1.589-.898.328.461 1.376-.605 2.237-.963.778-.824.791-1.578.126l-.544.126c-1.169-.045-.748 1.092-2.248-.528-1.892-2.042-2.214-1.975-4.425-4.645-1.096-1.323-1.403-4.407-1.721-4.865-.367-.53.092-.513-.088-.665l-.841-3.029c-.638 1.198-1.264 2.408-1.968 3.584-2.015 3.344-3.239 6.529-5.838 10.681l-5.42 8.405c-.859 2.202-2.356 3.412-3.205 5.123-.055.099-.115.203-.187.28-1.523 1.677-2.501 3.623-3.678 5.492-1.096 1.749-2.589 3.008-3.595 4.31-8.725 11.29-19.58 20.837-31.059 29.657-4.878 3.748-15.54 10.864-20.828 13.809l-6.179 3.403-3.595 2.04-9.367 4.557c-4.608 2.201-18.228 7.379-22.093 8.355l-4.931 1.451c-10.994 3.176-18.455 5.176-30.306 6.811-11.279 1.556-32.194 2.032-43.064.577-2.281-.291-4.552-.456-6.828-.676l-8.652-1.259c-10.761-1.482-23.774-4.729-34.044-8.339l-14.76-5.464c-.841-.363-1.627-.819-2.452-1.193-1.862-.86-3.614-1.219-5.041-2.595l-7.432-4.002c-4.187-2.33-8.567-4.785-12.39-7.69l-7.273-4.321c-1.643-.968-.531-.934-2.017-2.012l-7.201-5.305c-1.117-.909-3.349-3.414-3.964-4.711.766.079 2.538 1.212 3.32 1.644-.673-.977-.353-.604.126-.594.198-.044.396-.088.605-.126-.082-.506-.792-.819-1.001-1.297-.043-.732 5.514 2.608 5.904 2.842 10.471 6.286 39.412 17.759 53.058 22.637 1.6.549 6.697 1.832 7.63 2.331l12.358 3.067 10.219 1.913c7.876 1.401 23.389 2.619 31.911 2.671l14.248-.341c3.044-.147 5.683-.657 8.62-.946 4.525-.445 5.057-.682 9.774-1.6 3.137-.61 3.164-.298 7.091-1.298 2.067-.539 4.172-.951 6.267-1.407 5.904-1.218 15.78-4.435 21.774-6.585l13.111-5.536c10.325-4.908 19.142-9.763 28.612-16.002 2.089-1.424 4.106-2.935 6.173-4.392 6.647-4.669 13.126-9.88 19.223-15.249 2.254-1.985 4.745-4.738 6.767-6.327 1.734-1.363 13.5-14.733 14.529-15.975 2.322-2.804 8.989-11.123 10.648-12.77 1.958-1.944 4.544-5.395 6.294-7.762l2.969-3.716-3.128.77c-1.419.565-5.097 1.628-6.459.797-.63-.385-2.425-.43-4.623-1.77-1.162-.709-1.735-2.245-2.611-2.952.061-.247.154-.396.066-.885-.054-.265.282-.029.214-.676-.093-.892.535-.268.682-1.841.064-.688.95-.375 1.539-1.193.744-1.034 2.155-1.206 2.248-1.715.12-.648.621-.305.709-.814.006-.039.017-.055.033-.055.385 0 .533-.544.764-.901.132-.22.368-.187.55-.297l1.143-.841 9.867-4.172c.39-.176.753-.445 1.149-.632l5.415-2.138c2.979-1.847 6.888-.929 8.729 2.051l1.49 3.832.868 4.046c.286 1.78.196 9.013.374 9.73zm13.891-115.945-.264-8.449c.475-1.896-.098-3.738-.308-5.651-.093-.902-.137-1.814-.242-2.716-1.083-8.831-2.966-17.894-5.162-26.529-.396-1.545-.704-3.117-1.166-4.645-9.303-30.566-24.14-61.247-47.171-84.293-3.188-3.19-4.592-4.817-8.07-7.949-1.275-1.143-2.496-2.342-3.722-3.551-2.239-2.254-10.543-9.14-13.27-11.176-6.032-4.501-10.754-7.866-17.239-11.654-4.861-2.839-9.743-5.897-14.881-8.41-7.058-3.453-11.089-5.526-19.086-8.565-15.085-5.592-21.099-7.656-37.309-10.252-1.292-.203-2.55-.621-3.864-.66-2.199-.088-4.37.039-6.586-.445l-1.929-.055c-1.499-.139-2.96-.38-4.464-.176l-3.699-.176-9.845-.407c-2.863.007-5.333.524-8.608.368l-4.266.105.869-.99c.033-.213.282.167.489-.379.129-.34 2.544-2.157 3.034-3.656 1.021-3.119.784-3.199 1.479-5.898.53-2.061-.221-1.167-.726-2.16l-.379-.412c.113-.793.326-.814-.902-1.325-1.128-.469-1.386 1.06-2.106.495-.591-.464-.557.89-1.193.89-1.211 0-2.927 1.447-3.309 1.237-.665-.366-.558.09-.841.258l-6.432 4.42c-.632.562-6.437 3.704-7.624 4.695l-1.809 1.677c-.883.931-.886.573-1.875 1.446-2.638 2.336-2.875 6.371-.533 9.01l1.754 1.968c.324.368.956.368 1.182.88l3.364 2.699c.324.236.709.385 1.034.621l7.872 5.926 1.22.489c.165.088.242.297.489.297.401 0 .929-.154 1.094.159.005.006.033.006.061 0 .539-.156.37.391 1 .154.477-.179 1.243.878 2.435.951.915.056 1.093.952 1.682.649 1.322-.68 1.174.118 1.858-.396.536-.403.453.012.665-.176.368-.33.539-.324.775-.412.379-1.837 1.441-1.842 1.319-4.826-.087-2.13-.587-2.788-.533-3.54.105-1.47-2.4-4.032-3.513-4.882l-1.677-1.809 8.004 1.165c2.726.294 4.077.407 6.756 1.16l9.191 1.638 13.479 2.375 14.804 3.436c3.443 1.189 8.312 2.412 11.429 3.568 20.967 7.771 36.515 14.992 55.287 28.183 10.443 7.338 13.601 10.227 22.412 18.317 4.283 3.932 14.742 15.724 18.498 20.383 1.622 2.138 3.122 4.354 4.865 6.398 1.498 1.746 8.841 13.681 10.087 15.991 3.605 6.876 8.012 15.48 11.044 22.643l3.733 9.444 5.821 18.971c.091 1.382.771 3.285 1.154 5.019l3.04 16.7 1.578 11.346c1.444 9.145 2.936 22.718 3.007 31.977.004.554-.104 6.909.473 6.531.313-.418.247-1.193.649-1.506.865.932.363 1.383.989.269-.015.865-.118 3.005.165 3.7 3.3-4.448 2.4-14.535 3.524-15.887.835-1.005.102-7.306.467-10.021.485-3.613.607-10.832.472-14.574zm-229.29 40.035c2.259 2.199 4.469 4.453 6.745 6.635-.367.284-.667.618-1.022.533-.912-.218-1.841 2.323-3.243 3.155-1.667.989-6.529 5.319-7.685 6.333-.483.42-.974-.084-1.875 1.138l-17.915 17.151-8.63 7.927c-1.511 1.396-2.281 2.236-4.486 2.556-2.114.307-3.763-.208-5.552-1.154-1.149-.608-2.454-2.272-2.468-3.106-.022-1.321-1.214-2.448 1.094-6.377.692-1.177 11.761-12.095 13.166-13.523.462-.473.858-1.017 1.358-1.457.979-.858 1.924-1.743 2.809-2.705 2.545-2.793 4.664-4.473 7.119-7.916l1.715-1.831c.511-.868.869-1.858 1.688-2.479.033-.027.06-.082.077-.132.292-.933 1.262-1.188 1.561-2.27.215-.78 3.446-3.71 4.881-5.975 1.119-1.766 2.74-2.9 3.15-3.622zm33.291-20.554-14.908-12.759.561-.028c.667.452.384-.859.995-.902.986-.069 1.913-.981 2.732-1.396.176-.089.677.403.814-.077l10.571-8.499c2.669-1.923 3.574-4.055 4.381-4.508.71-.398 6.171-6.777 7.273-7.69.821-.529 2.421-2.286 2.688-3.375l.467-.588c.016-.379-.093-.891.214-1.006l.049-.396 12.198 12.033c-.121.06-.225.137-.341.209-.142.102-.678-.402-.819.077l-4.09 3.491c-1.576 1.576-4.613 3.676-6.476 5.013-2.621 1.881-3.569 4.045-4.381 4.502-.669.376-6.239 6.845-7.273 7.707-.801.521-2.445 2.3-2.683 3.364l-.467.588c-.022.385.099.902-.209 1.006-.016.011-.016.033-.011.06.082.269-.061.341-.149.451-.325.375.227.33-.242.967-1.019 1.39-.57.783-.894 1.756zm-72.859-52.618.044-8.306-17.063-17.431c-3.703-3.88-2.001-10.123 2.98-11.681 14.517-4.542 30.193-1.461 41.608 8.938 3.288 2.995 7.263 9.097 9.114 12.979 3.601 7.549 4.594 17.363 2.282 25.485-.21.738-1.803 5.089-2.265 5.332-1.428.752-1.673 4.283-1.358 5.458.143.489.352 1.001.973 1.902-1.33-1.012-2.188-2.501-2.936-3.507-.801-1.022-.191-4.508-.341-5.453-.29-1.832 1.336-6.342-.269-11.186-.203-.572-.324-1.248-.412-1.88-.571-4.376-2.039-8.987-4.612-12.616-3.082-4.347-7.819-9.108-12.671-11.445-4.236-2.04-3.661-1.419-7.905-2.446-2.643-.639-2.607-.345-4.634-.489l10.137 9.9c1.402 1.413 2.105 3.271 2.105 5.107l-.039 23.664c-.039 3.961-3.232 7.022-7.63 6.943-2.199-.049-4.409.061-6.608.061l-16.365.033c-2.136.002-3.75-.822-5.178-2.144l-8.235-8.213c1.997 11.446 10.025 20.653 21.17 23.89 4.377 1.271 10.179 1.692 14.677.434 3.153-.881 5.325-1.548 8.905-.726 4.821 1.107 7.475 4.358 10.807 7.608l17.893 17.629 36.407 37.265 25.507 26.232c4.872 4.954 11.734 1.168 12.935-3.777.94-3.869-.656-5.722-2.996-8.103l-24.951-25.38c-1.98-2.043-4.278-3.776-5.728-6.179-.727-1.204-7.049-7.487-8.653-9.158-4.208-4.386-11.099-11.501-14.87-15.93-1.838-2.159-6.83-6.66-9.114-8.795-2.026-1.894-.733-1.416-2.55-3.37l-4.189-4.403c-2.505-2.186-6.249-6.089-8.141-8.845-.851-1.239-1.83-2.408-2.462-3.771.953.422 3.377 2.613 4.353 3.43-.954-1.5-.663-.787.869-.555-.109-.535-2.55-3.115-.638-1.759 3.42 2.425 10.534 8.814 14.199 11.912.199-2.245-.142-5.137 1.204-7.047l1.6-2.138c.099-.514.411-.179.412-.385l2.468-3.304c1.826-2.365 3.071-3.145 4.821-5.514l1.649-2.237 2.084-2.446 1.143-1.698c5.075-5.943 3.291-4.146 9.856-9.164l-5.629-5.481-.797-7.097-.649-.225c.073-.391-.111-2.407-1.358-4.931-1.266-2.563-4.578-7.14-6.547-9.389-4.656-5.32-12.082-11.546-17.75-15.826-6.077-4.589-2.3-14.558 5.7-13.518 20.83 2.709 37.58 10.988 51.59 26.738l6.399 6.47c3.683 3.848 14.726 15.637 16.749 18.987 1.648 2.729 4.281 5.529 6.305 8.504 3.376 0 5.342-.054 8.575.605.762.156-.261.327 1.93 1.061.492.165.289.611 1.809.847-.797.352-1.539.588-2.111 1.16-.327.327-1.338.193-2.276.995-1.28 1.094-3.384.86-6.151 2.721-.785.528-1.908.637-2.957.863-2.488.536-3.976-1.113-5.53-2.776-2.2-2.355-5.059-4.124-7.745-6.833-.505-.509-5.425-5.29-6.239-5.722-1.67-.886-2.609-2.52-3.958-3.254-.082-.044-.17-.104-.231-.176-1.253-1.446-2.842-2.402-4.31-3.513-1.122-.846-2.548-2.572-3.403-3.287-6.369-5.331-14.807-14.657-21.472-18.404.011.011.011.011.011.011 1.655 2.815 3.733 5.426 5.101 8.823.797 2.062 1.627 4.233 2.039 6.932.126.841.203 1.742.22 2.71l5.794 5.739 18.817 19.702 7.009 7.46c1.308 1.424 1.825 3.326 1.578 5.107l-1.484 12.66 7.064 7.196 11.159-10.829c1.231-1.159 1.998-2.543 3.601-3.155l12.973-11.692c-.21-.444.126-.414-.561-1.231l-2.045-2.369c-2.262-1.804-3.791-4.467-5.118-7.042-.061-.126-.099-.275-.176-.511.475.019 1.807 1.182 2.265 1.534-.531-.944-.208-.536.451-.852-.066-.483-1.429-1.984-.374-1.407l14.001 10.329c1.312 1.021.769 2.28 0 3.287-5.678 7.431-10.119 13.411-16.695 20.268l-10.472 10.923c-1.001 1.043-2.262 2.667-3.205 3.287l-2.155 2.375c-2.07 2.11-5.225 2.14-7.608 0-.737-.737-1.446-1.501-2.215-2.204l-11.929-11.407c-2.413-2.258-1.579-5.439-1.308-8.597.143-1.803.275-3.612.423-5.426l-.66.852c-.125.541-.398.17-.401.385l-1.616 2.149c-1.973 2.652-2.398 3.048-4.898 5.607-.737.912-.897 1.552-2.424 3.293-2.829 3.181-5.613 8.026-9.911 10.989l-.896.583c-.988.966-3.375 2.909-4.865 2.578-.149-.038-.286-.055-.418-.066l17.387 16.073 19.075 18.63c1.663 1.624 4.602 4.202 5.772 5.69.973 1.237 2.877 2.268 4.903 5.057 5.905 8.129 4.674 18.969-2.996 25.968-7.94 7.246-19.088 7.221-26.986-.17l-9.565-9.334-37.782-37.611-4.744 8.103c-3.573 5.582-4.695 6.608-9.103 11.351l-2.446 2.639c-.916 1.32-1.08.867-1.347 1.33l-9.378 10.214c-2.404 2.585-7.613 8.164-10.324 10.544-3.722 3.268-8.963 5.075-13.935 4.986-3.873-.069-5.131-.389-8.774-1.984-3.454-1.512-7.415-5.553-9.147-8.806-2.706-5.081-3.283-11.956-1.402-17.42 1.85-5.376 5.248-8.241 8.999-12.132l7.685-7.789 9.208-8.526 3.447-3.386c2.075-1.916 8.602-7.63 10.604-8.35 1.884-.677 3.302-2.151 5.574-3.111.484-.203.957-.434 1.418-.665l-14.177-13.935c-.349 0-10.884 4.304-25.386 0-24.12-7.158-37.246-32.662-29.415-56.257 1.879-5.663 9.005-6.846 12.693-2.99l17.085 16.898 12.544.066zm-60.293 176.018c-8.465-2.008-14.563-9.376-15.568-17.92-.337-2.864.088-11.771.088-14.776.106-30.968.375-62.122 1.292-93.077.066-1.803.176-3.612.324-5.338.489-5.772.682-11.769.902-17.756l1.534-26.727c.286-4.216.55-8.454.907-12.583l1.132-9.092c.762-1.438 1.488-4.225 3.155-5.854l4.354-3.188c-1.567 1.358-2.721 3.034-2.836 4.337-.129.993-1.503 2.464-.753 5.679.341 1.473.44 3.43.473 5.464.093 5.222.379 10.258.989 14.958.421 3.222.35 13.238.308 16.667-.121 9.899.665 19.917.649 30.206l.181 20.664c.063 4.037.464 6.695.473 11.132.011 2.655-.044 5.338.214 7.889.028.264.044.561.033.83-.143 5.596.319 10.862.572 16.233.211 4.506-.062 9.452.077 13.836l.533 38.238c0 3.196 2.531 5.986 5.766 6.003l90.944-.027c11.549-.006 23.099-.017 34.648-.027 6.745-.05 13.495-.11 20.251-.165l58.242-.016 17.948.077c2.77.064 5.156-2.363 5.382-5.579l.038-2.094-.214-30.361c-.224-37.59.325-75.427.582-113.037l.314-30.388c.023-2.316-.196-4.204-2.27-5.844-4.321-3.161-8.647-6.327-12.968-9.494l-63.277-45.725-32.142-23.275c-2.341-1.677-4.15-3.363-7.25-3.034-2.702.286-4.932 2.284-7.064 3.903-2.6 1.979-5.178 3.815-7.844 5.178-1.676.858-27.457 19.085-32.081 22.225-4.97 3.37-9.9 6.866-14.93 10.126-4.639 3.011-12.265 8.942-16.947 12.445-3.259 2.439-2.893 1.441-5.992 3.584l-8.29 5.75c-4.548 3.525-11.491 8.403-16.491 11.219-2.068 1.165-4.34 2.579-6.487 3.524 1.111-1.267 5.419-4.566 7.047-5.866-2.521 1.394-1.37.837-.291-1.044-.693.18-5.652 3.531-2.737 1.012 3.689-3.243 7.773-6.415 11.802-9.593 29.627-23.398 59.598-47.736 90.081-69.852 6.927-5.026 14.96-5.13 22.022-.137l20.334 14.386c3.21 2.276 8.344 5.605 10.961 7.789.5.423 1.132.863 1.698 1.231 4.585 2.941 8.96 6.305 13.452 9.438l27.211 19.262 37.457 26.43c5.061 3.632 7.793 9.177 7.872 15.414l.016 22.043.088 58.704c0 1.132-.027 2.27.005 3.386.214 7.009.132 14.056.198 21.092.033 5.162.165 10.307.253 15.458.016 1.534.06 3.1.027 4.618-.116 4.794-.038 9.548.05 14.336l.115 35.38c.014 6.598-1.285 11.67-6.591 16.607-4.11 3.823-9.079 5.152-14.512 5.156l-55.482.462-66.707.308c-29.65.089-59.416.229-89.064-.033l-11.445-.264c-.919-.145-1.859-.255-2.761-.513z" fill="rgb(0,0,0)" fill-rule="evenodd"/></svg>