<?xml version="1.0"?>
<svg xmlns="http://www.w3.org/2000/svg" width="32" height="32" viewBox="0 0 32 32"><g id="outline"><g><path d="M17.5,6.13477,20.92773,2.707,24.5,6.2793V16a.5.5,0,0,0,1,0V7.2793l.14648.14648a.49995.49995,0,0,0,.707-.707l-.99939-.99939-.00122-.00122L21.28125,1.64648a.49982.49982,0,0,0-.707,0l-5,5a.49995.49995,0,0,0,.707.707L16.5,7.13477V14.5h-6V11a.49971.49971,0,0,0-.5-.5H3a.49971.49971,0,0,0-.5.5v9a.5.5,0,0,0,1,0V11.5h6v14h-6V24a.5.5,0,0,0-1,0v1.5H2a.5.5,0,0,0,0,1H16a.5.5,0,0,0,0-1H10.5v-10h6V20a.5.5,0,0,0,1,0Z"/><path d="M30.07617,22.65039l-.69629-.2041a5.61819,5.61819,0,0,0-.47754-1.15332l.34864-.63574a.50021.50021,0,0,0-.03711-.53809,6.43627,6.43627,0,0,0-1.333-1.333.50007.50007,0,0,0-.53809-.03711l-.63574.34864a5.61819,5.61819,0,0,0-1.15332-.47754l-.2041-.69629a.499.499,0,0,0-.40625-.35352,6.36353,6.36353,0,0,0-1.88672,0,.499.499,0,0,0-.40625.35352l-.2041.69629a5.61819,5.61819,0,0,0-1.15332.47754l-.63574-.34864a.50007.50007,0,0,0-.53809.03711,6.43627,6.43627,0,0,0-1.333,1.333.50021.50021,0,0,0-.03711.53809l.34864.63574a5.61819,5.61819,0,0,0-.47754,1.15332l-.69629.2041a.499.499,0,0,0-.35352.40625,6.36353,6.36353,0,0,0,0,1.88672.499.499,0,0,0,.35352.40625l.69629.2041a5.61819,5.61819,0,0,0,.47754,1.15332l-.34864.63574a.50021.50021,0,0,0,.03711.53809,6.43627,6.43627,0,0,0,1.333,1.333.50007.50007,0,0,0,.53809.03711l.63574-.34864a5.61819,5.61819,0,0,0,1.15332.47754l.2041.69629a.499.499,0,0,0,.40625.35352,6.36376,6.36376,0,0,0,1.88672,0,.499.499,0,0,0,.40625-.35352l.2041-.69629a5.61819,5.61819,0,0,0,1.15332-.47754l.63574.34864a.50007.50007,0,0,0,.53809-.03711,6.43627,6.43627,0,0,0,1.333-1.333.50021.50021,0,0,0,.03711-.53809l-.34864-.63574a5.61819,5.61819,0,0,0,.47754-1.15332l.69629-.2041a.499.499,0,0,0,.35352-.40625,6.36353,6.36353,0,0,0,0-1.88672A.499.499,0,0,0,30.07617,22.65039Zm-.59765,1.832-.65235.19141a.49832.49832,0,0,0-.34668.36816,4.63982,4.63982,0,0,1-.57715,1.39649.49889.49889,0,0,0-.01269.502l.32519.59277a5.35047,5.35047,0,0,1-.68164.68164l-.59277-.32519a.49651.49651,0,0,0-.502.01269,4.63982,4.63982,0,0,1-1.39649.57715.49832.49832,0,0,0-.36816.34668l-.19141.65235a5.68519,5.68519,0,0,1-.96484,0l-.19141-.65235a.49832.49832,0,0,0-.36816-.34668,4.63982,4.63982,0,0,1-1.39649-.57715.49662.49662,0,0,0-.502-.01269l-.59277.32519a5.35047,5.35047,0,0,1-.68164-.68164l.32519-.59277a.49889.49889,0,0,0-.01269-.502,4.63982,4.63982,0,0,1-.57715-1.39649.49832.49832,0,0,0-.34668-.36816l-.65235-.19141a5.48918,5.48918,0,0,1,0-.96484l.65235-.19141a.49832.49832,0,0,0,.34668-.36816,4.63982,4.63982,0,0,1,.57715-1.39649.49889.49889,0,0,0,.01269-.502l-.32519-.59277a5.35047,5.35047,0,0,1,.68164-.68164l.59277.32519a.49662.49662,0,0,0,.502-.01269,4.63982,4.63982,0,0,1,1.39649-.57715.49832.49832,0,0,0,.36816-.34668l.19141-.65235a5.68519,5.68519,0,0,1,.96484,0l.19141.65235a.49832.49832,0,0,0,.36816.34668,4.63982,4.63982,0,0,1,1.39649.57715.49651.49651,0,0,0,.502.01269l.59277-.32519a5.35047,5.35047,0,0,1,.68164.68164l-.32519.59277a.49889.49889,0,0,0,.01269.502,4.63982,4.63982,0,0,1,.57715,1.39649.49832.49832,0,0,0,.34668.36816l.65235.19141A5.48918,5.48918,0,0,1,29.47852,24.48242Z"/><path d="M24,21.5A2.5,2.5,0,1,0,26.5,24,2.50231,2.50231,0,0,0,24,21.5Zm0,4A1.5,1.5,0,1,1,25.5,24,1.50164,1.50164,0,0,1,24,25.5Z"/><circle cx="3" cy="22" r="0.5"/></g></g></svg>
