<svg id="_x31_" enable-background="new 0 0 24 24" height="512" viewBox="0 0 24 24" width="512" xmlns="http://www.w3.org/2000/svg"><g><path d="m14.5 24h-1c-.827 0-1.5-.673-1.5-1.5v-5c0-.827.673-1.5 1.5-1.5h1c.827 0 1.5.673 1.5 1.5v5c0 .827-.673 1.5-1.5 1.5zm-1-7c-.275 0-.5.225-.5.5v5c0 .275.225.5.5.5h1c.275 0 .5-.225.5-.5v-5c0-.275-.225-.5-.5-.5z"/></g><g><path d="m21 24h-.76c-2.7 0-4.284-.674-4.988-1.075-.239-.137-.323-.442-.187-.683.138-.241.445-.32.683-.187.497.285 1.931.945 4.492.945h.76c.703 0 1.339-.519 1.447-1.181.002-.015.005-.029.009-.044.062-.301.53-3.087.544-3.374 0-.768-.633-1.401-1.41-1.401h-2.75c-.185 0-.354-.102-.441-.265s-.077-.36.026-.514c.002-.003.385-.605.385-1.592 0-.998-.4-1.36-.67-1.36-.093.013-.199.155-.199.9 0 1.551-1.543 2.681-2.206 3.094-.231.147-.541.077-.688-.159-.146-.234-.075-.543.159-.688.407-.254 1.735-1.167 1.735-2.246 0-.617 0-1.9 1.199-1.9.805 0 1.67.738 1.67 2.36 0 .553-.095 1.017-.207 1.37h1.987c1.329 0 2.41 1.081 2.41 2.41 0 .032-.124 2.541-.61 3.563l.044.008c-.188 1.151-1.235 2.019-2.434 2.019z"/></g><g><path d="m10.5 22h-10c-.276 0-.5-.224-.5-.5s.224-.5.5-.5h10c.276 0 .5.224.5.5s-.224.5-.5.5z"/></g><g><path d="m10.5 22h-8c-.276 0-.5-.224-.5-.5v-15c0-.276.224-.5.5-.5h9c.276 0 .5.224.5.5v8.77c0 .276-.224.5-.5.5s-.5-.224-.5-.5v-8.27h-8v14h7.5c.276 0 .5.224.5.5s-.224.5-.5.5z"/></g><g><path d="m9.5 7c-.276 0-.5-.224-.5-.5v-2.5h-4v2.5c0 .276-.224.5-.5.5s-.5-.224-.5-.5v-3c0-.276.224-.5.5-.5h5c.276 0 .5.224.5.5v3c0 .276-.224.5-.5.5z"/></g><g><path d="m7 4c-.276 0-.5-.224-.5-.5v-3c0-.276.224-.5.5-.5s.5.224.5.5v3c0 .276-.224.5-.5.5z"/></g><g><path d="m5.5 22c-.276 0-.5-.224-.5-.5v-12c0-.276.224-.5.5-.5s.5.224.5.5v12c0 .276-.224.5-.5.5z"/></g><g><path d="m8.5 22c-.276 0-.5-.224-.5-.5v-12c0-.276.224-.5.5-.5s.5.224.5.5v12c0 .276-.224.5-.5.5z"/></g></svg>